<?xml version="1.0" encoding="utf-8"?>
<!-- Generator: Adobe Illustrator 27.0.0, SVG Export Plug-In . SVG Version: 6.00 Build 0)  -->
<svg version="1.1" id="Ebene_1" xmlns="http://www.w3.org/2000/svg" xmlns:xlink="http://www.w3.org/1999/xlink" x="0px" y="0px"
	 viewBox="0 0 266.1 275" style="enable-background:new 0 0 266.1 275;" xml:space="preserve">
<style type="text/css">
	.st0{stroke:#000000;stroke-width:4;stroke-miterlimit:10;}
	.st1{display:none;}
	.st2{display:inline;}
	.st3{fill:none;stroke:#12120D;stroke-width:8;stroke-miterlimit:10;}
</style>
<g>
	<path class="st0" d="M133.1,226.3L34.8,56.1l196.5,0L133.1,226.3z M41.3,59.9l91.8,158.9l91.8-158.9L41.3,59.9z"/>
</g>
<g class="st1">
	<path class="st2" d="M142.4,129.1c-1.3,1-2.3,2-3,3c-0.7,1-1.3,2.1-1.6,3.3c-0.3,1.2-0.5,2.5-0.6,4l-0.1,3.1c0,1.1,0,2.6,0,2.6
		l-8.5-0.1c0,0,0-2.3,0.1-4.5c0.1-4.7,1.2-9,3.4-12.5c1.1-1.6,2.3-3.1,3.8-4.4c1.5-1.3,3.5-2.9,6.1-4.6c1.8-1.2,3.3-2.3,4.5-3.4
		c1.2-1,2.1-2.1,2.8-3.1c0.7-1.1,1.2-2.2,1.5-3.4c0.3-1.2,0.4-2.5,0.4-4c0-4.4-1.3-8-4-10.8c-2.7-2.8-6.1-4.2-10.2-4.2
		c-2.1,0-4.1,0.4-5.9,1.1c-1.8,0.7-3.5,1.7-4.9,3c-1.4,1.3-2.6,2.8-3.4,4.4c-0.8,1.7-1.2,3.4-1.2,5.3c0,1.4,0.6,2.4,0.6,2.4
		l-6.1,5.1c-2.5-2-2.9-5.1-2.9-7.6c0-3.3,0.6-6,1.8-8.8c1.4-3.2,3.3-5,5.3-7c2.1-2,4.5-3.4,7.4-4.5c2.9-1.1,6.1-1.7,9.5-1.7
		c3.4,0,6.5,0.6,9.4,1.7c2.8,1.1,5.2,2.7,7.2,4.7c2,2,3.5,4.4,4.6,7.3c1.1,2.8,1.7,6,1.7,9.5c0,4.6-1,8.6-3,11.8
		c-2,3.2-5.2,6.3-9.7,9.1C145.3,127,143.7,128.1,142.4,129.1z"/>
	<rect x="128.6" y="152.2" class="st2" width="8.5" height="12.7"/>
</g>
<polyline class="st3" points="117,106.2 117,88.4 154.5,88.4 154.5,123.9 133.1,123.9 133.1,147.6 "/>
<line class="st3" x1="133.1" y1="153.3" x2="133.1" y2="164"/>
</svg>
