<?xml version="1.0" encoding="utf-8"?>
<!-- Generator: Adobe Illustrator 27.0.0, SVG Export Plug-In . SVG Version: 6.00 Build 0)  -->
<svg version="1.1" id="Ebene_1" xmlns="http://www.w3.org/2000/svg" xmlns:xlink="http://www.w3.org/1999/xlink" x="0px" y="0px"
	 viewBox="0 0 266.1 275" style="enable-background:new 0 0 266.1 275;" xml:space="preserve">
<style type="text/css">
	.st0{stroke:#000000;stroke-width:4;stroke-miterlimit:10;}
	.st1{display:none;stroke:#000000;stroke-width:4;stroke-miterlimit:10;}
	.st2{stroke:#000000;stroke-width:0.75;stroke-miterlimit:10;}
</style>
<path class="st1" d="M167.5,168.1c-7.3-7.3-19.5-19.4-31.4-31.3c14.3-14.3,28.3-28.3,31.3-31.4l-2.8-2.8
	c-7.3,7.3-19.4,19.5-31.3,31.4c-16-16-31.6-31.7-31.6-31.7l-3,2.6c0,0,15.6,15.8,31.8,31.9c-16,16-30.8,30.8-31.7,31.6l2.6,3
	c1-0.8,16.3-16.1,32-31.8c14.3,14.3,28.4,28.3,31.4,31.3L167.5,168.1z"/>
<g>
	<path class="st0" d="M214.4,218.1H51.8V55.6h162.6V218.1z M56.9,213h152.3V60.7H56.9V213z"/>
</g>
</svg>
